<svg width="90" height="101" xmlns="http://www.w3.org/2000/svg" xmlns:xlink="http://www.w3.org/1999/xlink" overflow="hidden"><defs><clipPath id="clip0"><path d="M595 232 685 232 685 333 595 333Z" fill-rule="evenodd" clip-rule="evenodd"/></clipPath><clipPath id="clip1"><path d="M596 232 684 232 684 332 596 332Z" fill-rule="evenodd" clip-rule="evenodd"/></clipPath><clipPath id="clip2"><path d="M596 232 684 232 684 332 596 332Z" fill-rule="evenodd" clip-rule="evenodd"/></clipPath><clipPath id="clip3"><path d="M596 232 684 232 684 332 596 332Z" fill-rule="evenodd" clip-rule="evenodd"/></clipPath><clipPath id="clip4"><path d="M613 255 667 255 667 322 613 322Z" fill-rule="evenodd" clip-rule="evenodd"/></clipPath><clipPath id="clip5"><path d="M613 255 667 255 667 322 613 322Z" fill-rule="evenodd" clip-rule="evenodd"/></clipPath><clipPath id="clip6"><path d="M613 255 667 255 667 322 613 322Z" fill-rule="evenodd" clip-rule="evenodd"/></clipPath></defs><g clip-path="url(#clip0)" transform="translate(-595 -232)"><g clip-path="url(#clip1)"><g clip-path="url(#clip2)"><g clip-path="url(#clip3)"><path d="M643 233.732 680.301 255.268C682.157 256.34 683.301 258.32 683.301 260.464L683.301 303.536C683.301 305.68 682.157 307.66 680.301 308.732L643 330.268C641.144 331.34 638.856 331.34 637 330.268L599.699 308.732C597.843 307.66 596.699 305.68 596.699 303.536L596.699 260.464C596.699 258.32 597.843 256.34 599.699 255.268L637 233.732C638.856 232.66 641.144 232.66 643 233.732Z" fill="#DF691A"/></g></g></g><g clip-path="url(#clip4)"><g clip-path="url(#clip5)"><g clip-path="url(#clip6)"><path d="M15.7048 26.264C16.5088 25.2992 15.812 23.7984 14.5256 23.7984L9.0048 23.7984C9.1656 22.7264 9.4336 21.708 9.8088 20.6896 9.8088 20.6896 9.8088 20.6896 9.8088 20.636 10.8808 17.688 12.7032 15.0616 15.0616 13.0248 15.0616 13.0248 15.1152 12.9712 15.1152 12.9712 15.8656 12.328 16.616 11.792 17.4736 11.3096 17.5808 11.256 17.688 11.2024 17.7952 11.1488 18.5992 10.6664 19.4568 10.2912 20.3144 9.916 20.4216 9.8624 20.5824 9.8088 20.7432 9.7552 21.6008 9.4336 22.512 9.1656 23.4768 9.0048 23.584 9.0048 23.6912 8.9512 23.852 8.9512 24.8168 8.7904 25.8352 8.6832 26.9072 8.6832 33.0176 8.6832 38.324 11.7384 41.5936 16.348L41.6472 16.2944 44.6488 12.7032 45.6136 11.5776 45.6672 11.524C41.1112 6.164 34.3576 2.68 26.8 2.68 13.4536 2.68 2.68 13.4536 2.68 26.8 2.68 27.604 2.7336 28.4616 2.8408 29.2656 2.8944 29.6408 2.948 30.016 3.0016 30.4448 3.0016 30.4448 3.0016 30.4448 3.0016 30.4448 3.0016 30.6056 3.0552 30.7664 3.0552 30.9808 3.0552 31.1416 3.1088 31.2488 3.1624 31.4096 3.3232 32.2672 3.5376 33.1248 3.8056 33.9824 3.8592 34.1432 3.8592 34.3576 3.9128 34.5184L3.9128 34.5184C4.02 34.7864 4.1272 35.0544 4.2344 35.3224 4.3416 35.5368 4.3952 35.8048 4.5024 36.0192 4.824 36.8768 5.1992 37.6808 5.628 38.4312L5.628 38.4312 9.916 33.2856 15.7048 26.264ZM50.7592 24.3344C50.7056 23.9592 50.652 23.584 50.5984 23.1552 50.5984 23.1552 50.5984 23.1552 50.5984 23.1552 50.5984 22.9944 50.5448 22.8336 50.5448 22.6192 50.5448 22.4584 50.4912 22.3512 50.4376 22.1904 50.2768 21.3328 50.0624 20.4752 49.7944 19.6176 49.7408 19.4568 49.7408 19.2424 49.6872 19.0816L49.6872 19.0816C49.58 18.8136 49.4728 18.5456 49.3656 18.2776 49.2584 18.0632 49.2048 17.7952 49.0976 17.5808 48.776 16.7232 48.4008 15.9192 47.972 15.1688L47.972 15.1688 43.684 20.3144 37.8952 27.336C37.0912 28.3008 37.788 29.8016 39.0744 29.8016L44.6488 29.8016C44.488 30.8736 44.22 31.892 43.8448 32.9104 43.8448 32.9104 43.8448 32.9104 43.8448 32.964 42.7728 35.912 40.9504 38.5384 38.592 40.5752 38.592 40.5752 38.5384 40.6288 38.5384 40.6288 37.788 41.272 37.0376 41.808 36.18 42.2904 36.0728 42.344 35.9656 42.3976 35.8584 42.4512 35.0544 42.9336 34.1968 43.3088 33.3392 43.684 33.232 43.7376 33.0712 43.7912 32.9104 43.8448 32.0528 44.1664 31.1416 44.4344 30.1768 44.5952 30.0696 44.5952 29.9624 44.6488 29.8016 44.6488 28.8368 44.8096 27.8184 44.9168 26.7464 44.9168 20.636 44.9168 15.3296 41.8616 12.06 37.252L12.0064 37.3056 9.0048 40.8968 8.04 42.0224 7.9864 42.076C12.4888 47.436 19.2424 50.92 26.8 50.92 40.1464 50.92 50.92 40.1464 50.92 26.8 50.92 25.996 50.8664 25.1384 50.7592 24.3344Z" fill="#FFFFFF" transform="matrix(1.00746 0 -0 1 613 255)"/></g></g></g></g></svg>