<?xml version="1.0" encoding="iso-8859-1"?>
<!-- Generator: Adobe Illustrator 19.0.0, SVG Export Plug-In . SVG Version: 6.00 Build 0)  -->
<svg version="1.1" id="Capa_1" xmlns="http://www.w3.org/2000/svg" xmlns:xlink="http://www.w3.org/1999/xlink" x="0px" y="0px"
	 viewBox="0 0 512 512" style="enable-background:new 0 0 512 512;" xml:space="preserve">
<g>
	<g>
		<path d="M490.107,1.69L8.275,243.606c-4.862,2.441-8.021,7.323-8.255,12.757c-0.234,5.435,2.491,10.571,7.125,13.421
			l112.856,69.45V497c0,6.455,4.129,12.185,10.252,14.228c6.124,2.043,12.865-0.06,16.741-5.221l77.13-102.697l173.004,106.464
			c4.199,2.584,9.401,2.94,13.912,0.95c4.512-1.989,7.758-6.069,8.683-10.913l91.983-481.91c0.031-0.16,0.06-0.32,0.086-0.481
			C513.759,5.273,501.016-3.93,490.107,1.69z M134.214,312.758L45.785,258.34L398.697,81.152L134.214,312.758z M149.998,452.052
			V338.81l248.446-217.561C392.987,128.514,156.496,443.4,149.998,452.052z M394.33,472.83l-152.116-93.61L470.118,75.769
			L394.33,472.83z"/>
	</g>
</g>
<g>
</g>
<g>
</g>
<g>
</g>
<g>
</g>
<g>
</g>
<g>
</g>
<g>
</g>
<g>
</g>
<g>
</g>
<g>
</g>
<g>
</g>
<g>
</g>
<g>
</g>
<g>
</g>
<g>
</g>
</svg>
